<svg fill="none" height="24" viewBox="0 0 24 24" width="24" xmlns="http://www.w3.org/2000/svg"><g fill="#212121"><path d="m2.21968 2.21966c.29289-.29289.76777-.29288 1.06066.00002l18.49976 18.50012c.2929.2929.2929.7678 0 1.0607s-.7678.2929-1.0607 0l-.9451-.9452c-.322.1069-.6664.1647-1.0243.1647h-13.5c-1.79493 0-3.25-1.4551-3.25-3.25v-9.5c0-1.40337.88949-2.599 2.13545-3.05385l-1.91579-1.91583c-.29289-.29289-.29288-.76777.00002-1.06066zm11.60272 12.66364c-.5052.3868-1.137.6167-1.8224.6167-1.6569 0-3-1.3431-3-3 0-.6855.22989-1.3172.61678-1.8224l-1.06685-1.06688c-.65534.78168-1.04993 1.78938-1.04993 2.88928 0 2.4853 2.01472 4.5 4.5 4.5 1.0998 0 2.1075-.3946 2.8892-1.0499z"/><path d="m16.4369 13.2552c.0415-.2456.0631-.4979.0631-.7552 0-2.4853-2.0147-4.5-4.5-4.5-.2573 0-.5096.0216-.7551.06307l-3.59053-3.59064.55063-.89673c.40925-.66649 1.13526-1.07265 1.9174-1.07265h3.8023c.7978 0 1.536.42248 1.94 1.11037l.8146 1.38658h2.0707c1.7949 0 3.25 1.45508 3.25 3.25v9.5c0 .3241-.0474.6372-.1358.9326z"/></g></svg>